<svg width="512" height="512" viewBox="0 0 512 512" fill="none" xmlns="http://www.w3.org/2000/svg">
<path d="M212.35 55.7969C244.446 55.7969 273.333 60.3281 299.01 69.3906C325.064 78.4531 344.7 90.3477 357.916 105.074C364.719 113.143 370.096 121.809 374.049 131.071C355.001 144.959 336.622 155.997 311.349 170.83C310.135 140.377 299.792 117.892 280.318 103.375C259.928 87.8932 227.643 80.1523 183.463 80.1523C174.778 80.1523 169.114 81.6628 166.471 84.6836C163.827 87.3268 162.506 93.1797 162.506 102.242V269.898C163.784 270.026 165.024 270.146 166.227 270.263C161.888 275.475 157.759 281.039 153.887 287.006C122.664 335.12 116.006 391.436 112.102 411.446C110.234 421.016 103.618 437.846 97.1982 452.764C94.0344 460.115 90.9914 466.836 88.7393 471.721C87.6137 474.162 86.6876 476.142 86.043 477.51C85.7207 478.194 85.4683 478.724 85.2979 479.082C85.2126 479.261 85.1478 479.398 85.1045 479.488C85.0829 479.534 85.0663 479.568 85.0557 479.59C85.0504 479.601 85.0465 479.609 85.0439 479.614C85.0427 479.617 85.0416 479.619 85.041 479.62V479.622L82.9414 484H41.8613V472.105C54.3223 470.973 63.9512 469.462 70.748 467.574C77.9225 465.686 83.3978 462.477 87.1738 457.945C90.9499 453.414 93.2155 447.184 93.9707 439.254C95.1035 430.947 95.6699 419.996 95.6699 406.402V126.598C95.6699 114.892 95.1035 105.641 93.9707 98.8438C92.8379 91.6693 90.3835 86.194 86.6074 82.418C82.8314 78.2643 77.3561 75.2435 70.1816 73.3555C63.0072 71.4674 53.5671 69.957 41.8613 68.8242V55.7969H212.35ZM162.719 424.496C163.04 431.737 163.723 437.978 164.771 443.219C166.282 450.393 169.114 456.057 173.268 460.211C177.799 464.365 184.029 467.385 191.959 469.273C199.889 470.784 210.273 471.728 223.111 472.105V484H113.351L112.949 481.256C112.948 481.248 112.947 481.232 112.944 481.206C112.937 481.133 112.923 480.987 112.911 480.774C112.888 480.349 112.87 479.654 112.915 478.728C113.005 476.874 113.345 474.092 114.388 470.662C116.456 463.858 121.369 454.246 133.086 444.17C143.181 435.488 151.927 429.532 162.719 424.496Z" fill="url(#paint0_linear_2003_61)"/>
<path d="M117.5 412.5C113.5 433 92 481 92 481H106C106 481 104.5 461.5 129.5 440C154.5 418.5 172 413 226 399C280 385 338.5 363.5 370 344C401.5 324.5 434.5 289.5 448.5 262C462.5 234.5 482.5 180.5 481 137C479.5 93.5 470 46 470 46C470 46 406 114.5 378 135C350 155.5 323.5 169.813 276 198C235.691 221.92 189 243 158.5 290C128 337 121.5 392 117.5 412.5Z" fill="url(#paint1_linear_2003_61)" stroke="#E94560" stroke-width="2" stroke-linecap="round"/>
<path d="M100.5 480.5C115.5 418.5 143.5 395 196.5 352C249.5 309 274.5 290 331 249C387.5 208 414 192 439 159C464 126 469.5 46.5 469.5 46.5" stroke="#E94560" stroke-width="2" stroke-linecap="round"/>
<path d="M230 397L225.5 329L360.5 349" stroke="#E94560" stroke-width="2" stroke-linecap="round"/>
<path d="M225.5 328.5L159 289.5" stroke="#E94560" stroke-width="2" stroke-linecap="round"/>
<path d="M225.5 328.5L243 217.5" stroke="#E94560" stroke-width="2" stroke-linecap="round"/>
<path d="M243 217.5L333.5 247.5" stroke="#E94560" stroke-width="2" stroke-linecap="round"/>
<path d="M333.5 247.5L360.5 348.5" stroke="#E94560" stroke-width="2" stroke-linecap="round"/>
<path d="M334 248L447.5 263.5" stroke="#E94560" stroke-width="2" stroke-linecap="round"/>
<path d="M333.5 247.5L366.5 144" stroke="#E94560" stroke-width="2" stroke-linecap="round"/>
<path d="M366.5 144L421.5 179.5" stroke="#E94560" stroke-width="2" stroke-linecap="round"/>
<path d="M421 179.5L479 165" stroke="#E94560" stroke-width="2" stroke-linecap="round"/>
<circle cx="225.5" cy="328.5" r="4.5" fill="white" stroke="#E94560" stroke-width="2"/>
<circle cx="333.5" cy="247.5" r="4.5" fill="white" stroke="#E94560" stroke-width="2"/>
<circle cx="421.5" cy="179.5" r="4.5" fill="white" stroke="#E94560" stroke-width="2"/>
<defs>
<linearGradient id="paint0_linear_2003_61" x1="211.499" y1="-9" x2="211.499" y2="492" gradientUnits="userSpaceOnUse">
<stop stop-color="#1A1A3B"/>
<stop offset="1" stop-color="#12123B"/>
</linearGradient>
<linearGradient id="paint1_linear_2003_61" x1="347" y1="55" x2="221.5" y2="491" gradientUnits="userSpaceOnUse">
<stop stop-color="#272039"/>
<stop offset="1" stop-color="#30132B"/>
</linearGradient>
</defs>
</svg>
